<svg xmlns="http://www.w3.org/2000/svg" width="512" height="512" viewBox="0 0 512 512" version="1.1">
	<path d="M 207.270 39.483 C 199.248 42.970, 197.731 53.616, 204.387 59.716 C 207.434 62.509, 208.716 63, 212.951 63 C 217.085 63, 218.525 62.478, 221.434 59.924 C 225.845 56.050, 226.741 51.894, 224.417 46.084 C 223.067 42.711, 221.790 41.354, 218.594 39.903 C 213.720 37.690, 211.577 37.610, 207.270 39.483 M 211.050 47.759 C 207.055 50.994, 211.618 56.357, 215.845 53.396 C 218.398 51.608, 218.586 49.729, 216.429 47.571 C 214.431 45.574, 213.717 45.599, 211.050 47.759 M 267.500 84.111 C 265.300 84.612, 262.257 85.524, 260.737 86.137 C 256.027 88.040, 255.840 94.931, 260.375 99.466 C 262.596 101.686, 263.095 101.743, 276.084 101.249 C 287.808 100.803, 290.508 101.015, 297.487 102.931 C 324.089 110.235, 343.910 129.838, 353.462 158.291 C 354.895 162.561, 356.561 167.137, 357.164 168.460 C 359.307 173.165, 366.947 174.145, 371.250 170.267 C 376.814 165.253, 367.842 139.720, 353.952 121.036 C 340.019 102.295, 319.759 89.077, 297.927 84.485 C 290.229 82.865, 273.857 82.664, 267.500 84.111 M 183.239 101.335 C 171.970 105.422, 165.628 118.352, 169.141 130.078 C 173.627 145.048, 194.727 150.221, 206.342 139.197 C 212.613 133.244, 215.089 122.473, 212.018 114.504 C 207.730 103.381, 194.407 97.285, 183.239 101.335 M 244 109.706 C 241.210 110.726, 238.107 114.236, 237.483 117.079 C 235.993 123.859, 243.363 130.905, 250.537 129.559 C 254.503 128.815, 259 123.934, 259 120.374 C 259 112.916, 250.926 107.174, 244 109.706 M 183.923 115.923 C 180.797 119.049, 180.193 122.616, 182.163 126.316 C 183.999 129.762, 186.173 130.934, 190.795 130.968 C 196.638 131.011, 200 127.735, 200 122 C 200 116.357, 196.631 113, 190.969 113 C 187.746 113, 186.208 113.638, 183.923 115.923 M 111.182 121.519 C 102.061 125.481, 98.044 131.437, 98.044 141 C 98.044 147.941, 100.612 153.710, 105.492 157.732 C 112.785 163.744, 121.730 164.064, 129.802 158.601 C 138.060 153.014, 140.935 143.737, 137.461 133.890 C 133.618 122.997, 121.218 117.160, 111.182 121.519 M 114.357 132.992 C 113.178 133.467, 111.491 134.889, 110.607 136.151 C 105.472 143.483, 113.868 152.705, 121.897 148.553 C 127.917 145.440, 128.886 138.765, 123.923 134.589 C 120.759 131.926, 118.098 131.482, 114.357 132.992 M 191.039 162.189 C 188.176 165.261, 188.312 171.005, 191.314 173.826 C 194.015 176.362, 196.975 176.581, 200.928 174.537 C 205.549 172.148, 206.404 167.055, 202.927 162.635 C 200.198 159.165, 194.070 158.935, 191.039 162.189 M 252.344 162.031 C 243.303 163.843, 232.941 171.426, 228.947 179.153 C 225.040 186.710, 224.769 198.726, 228.314 207.209 C 230.464 212.354, 236.628 218.773, 242.722 222.212 C 245.965 224.042, 247.740 225.636, 247.326 226.345 C 246.955 226.980, 244.990 229.975, 242.960 233 C 232.017 249.304, 225.286 267.281, 221.521 290.265 L 220.904 294.030 216.423 290.947 C 205.907 283.712, 193.468 280.038, 179.410 280.015 C 133.869 279.941, 100.213 324.203, 111.878 368.830 C 120.404 401.450, 146.429 422, 179.213 422 C 205.935 422, 228.860 409.382, 241.151 387.910 C 242.993 384.692, 244.811 382.046, 245.192 382.030 C 245.572 382.013, 247.896 384.616, 250.357 387.814 C 258.434 398.311, 272.789 410.429, 285.701 417.649 C 323.294 438.673, 378.247 434.495, 414.155 407.884 C 423.478 400.974, 437.704 385.777, 444.481 375.485 C 451.548 364.754, 458.394 349.550, 461.809 337 C 464.141 328.433, 464.400 325.683, 464.447 309 C 464.503 289.335, 463.717 283.913, 458.284 266.500 C 454.843 255.471, 446.299 239.162, 438.623 228.972 C 407.632 187.828, 355.582 169.610, 310.388 184.087 C 305.297 185.717, 298.615 188.165, 295.538 189.526 C 292.461 190.887, 289.789 192, 289.600 192 C 289.412 192, 288.970 189.863, 288.619 187.250 C 287.845 181.498, 283.312 173.287, 278.809 169.479 C 271.631 163.408, 260.749 160.346, 252.344 162.031 M 252 178.767 C 242.851 183.240, 239.405 192.649, 243.852 201.016 C 247.811 208.466, 256.157 211.012, 263.790 207.097 C 274.450 201.631, 276.514 190.896, 268.572 182.230 C 265.618 179.007, 264.700 178.618, 259.395 178.341 C 256.153 178.172, 252.825 178.363, 252 178.767 M 47.388 179.980 C 44.533 181.134, 40.999 185.786, 41.004 188.385 C 41.010 192.019, 44.614 196.717, 48.337 197.946 C 56.322 200.582, 63.737 193.092, 60.592 185.566 C 58.410 180.343, 52.587 177.880, 47.388 179.980 M 187.544 183.754 C 180.952 193.716, 177.322 208.813, 178.332 222.065 C 179.233 233.875, 181.219 236.943, 186.659 234.930 C 188.604 234.211, 188.778 233.200, 189.255 219.830 C 189.780 205.119, 191.307 198.199, 196.104 188.797 C 198.503 184.094, 198.494 182.335, 196.066 181.035 C 192.477 179.115, 190.116 179.868, 187.544 183.754 M 105.500 191.406 C 91.910 194.764, 82.781 203.701, 79.423 216.933 C 75.628 231.889, 82.826 247.167, 97.216 254.697 C 101.835 257.114, 103.632 257.464, 111.500 257.481 C 119.159 257.497, 121.337 257.107, 126.120 254.865 C 134.019 251.161, 139.447 245.869, 143.232 238.180 C 146.065 232.425, 146.475 230.604, 146.411 224.037 C 146.258 208.156, 136.301 195.658, 120.530 191.550 C 113.627 189.752, 112.246 189.738, 105.500 191.406 M 321.486 196.468 C 304.609 200.144, 283.214 211.893, 270.440 224.500 C 259.834 234.968, 255.544 241.279, 255.854 245.957 C 256.426 254.609, 260.908 252.665, 268.871 240.308 C 273.429 233.234, 273.766 232.933, 274.382 235.387 C 275.386 239.386, 278.798 238.766, 293.118 231.982 C 300.105 228.672, 309.309 225.072, 313.571 223.982 C 323.980 221.320, 338.982 221.310, 349.339 223.959 C 373.410 230.115, 395.036 249.156, 406.391 274.192 C 412.622 287.929, 413.481 292.574, 413.476 312.500 C 413.472 329.559, 413.328 330.907, 410.728 338.293 C 407.358 347.869, 402.992 356.633, 397.729 364.392 C 393.700 370.331, 379.974 384.853, 374.597 388.863 C 369.628 392.570, 372.645 392.481, 380.240 388.696 C 414.280 371.734, 431.960 343.646, 431.979 306.500 C 431.986 293.166, 430.843 285.648, 426.984 273.637 C 417.195 243.170, 395.593 218.519, 364.656 202.512 C 358.797 199.480, 353.215 196.993, 352.252 196.985 C 350.755 196.972, 350.718 196.828, 352 196 C 354.293 194.518, 328.635 194.912, 321.486 196.468 M 105.180 209.682 C 103.353 210.582, 100.653 212.899, 99.180 214.831 C 95.619 219.500, 95.321 229.271, 98.605 233.677 C 108.087 246.398, 129.385 239.764, 129.385 224.089 C 129.385 212.081, 116.217 204.243, 105.180 209.682 M 280.721 239.283 C 276.671 240.279, 274.797 242.816, 273.645 248.862 C 272.698 253.837, 275.557 259.112, 284.979 269.769 C 293.171 279.036, 297.054 282, 301 282 C 306.026 282, 312 276.553, 312 271.969 C 312 269.103, 310.470 266.386, 305.540 260.500 C 303.236 257.750, 298.769 252.046, 295.612 247.825 C 289.266 239.342, 286.630 237.830, 280.721 239.283 M 197.077 242.589 C 193.325 245.746, 193.015 249.794, 196.250 253.389 C 201.105 258.785, 210 255.998, 210 249.082 C 210 244.799, 209.091 243.099, 205.928 241.463 C 202.005 239.434, 200.616 239.611, 197.077 242.589 M 48.882 250.321 C 35.510 255.321, 28.020 265.977, 28.020 280 C 28.020 289.652, 30.743 295.785, 37.877 302.200 C 44.607 308.251, 50.965 310.414, 60.095 309.761 C 72.272 308.890, 82.505 301.895, 87.230 291.214 C 89.923 285.124, 89.386 272.516, 86.167 266.278 C 80.604 255.498, 71.891 249.838, 60.038 249.306 C 55.342 249.095, 51.136 249.478, 48.882 250.321 M 51.500 266.861 C 46.368 270.030, 44.692 272.669, 44.224 278.312 C 43.840 282.946, 44.120 283.989, 46.512 286.832 C 53.448 295.075, 63.507 295.129, 70.381 286.959 C 75.577 280.784, 72.906 269.530, 65.510 266.440 C 60.793 264.469, 55.095 264.640, 51.500 266.861 M 330.994 282.876 C 320.361 286.357, 314 294.452, 314 304.500 C 314 316.810, 324.454 327.148, 337.023 327.266 C 361.043 327.493, 368.960 295.794, 347.622 284.823 C 343.311 282.606, 334.845 281.615, 330.994 282.876 M 164 300.276 C 147.110 306.055, 134.994 318.218, 129.412 335 C 126.939 342.432, 126.928 358.239, 129.390 366.500 C 133.706 380.987, 142.254 391.733, 154.638 398.240 C 171.386 407.041, 187.252 407.235, 204.805 398.855 C 215.127 393.927, 222.981 386.388, 228.250 376.351 C 232.807 367.671, 232.897 365.028, 229.024 353.571 C 227.387 348.729, 224.896 339.532, 223.488 333.134 C 222.079 326.735, 220.444 320.275, 219.854 318.778 C 217.543 312.917, 201.863 302.113, 191.766 299.426 C 183.687 297.275, 171.697 297.642, 164 300.276 M 176.123 333.005 C 171.848 334.011, 168.146 336.743, 165.162 341.092 C 163.193 343.963, 162.884 345.466, 163.202 350.630 C 163.827 360.776, 170.353 367.231, 179.987 367.231 C 193.536 367.231, 201.796 354.473, 196 342.500 C 192.366 334.993, 184.216 331.100, 176.123 333.005 M 61.455 340.455 C 56.048 345.861, 59.867 355, 67.531 355 C 71.726 355, 77 350.559, 77 347.027 C 77 344.129, 74.432 339.380, 72.455 338.621 C 68.758 337.203, 63.896 338.013, 61.455 340.455 M 244.314 418.950 C 240.375 421.352, 239 423.815, 239 428.469 C 239 434.944, 244.284 440, 251.050 440 C 253.299 440, 255.173 439.027, 257.600 436.600 C 260.431 433.769, 261 432.467, 261 428.823 C 261 423.571, 258.918 420.282, 254.401 418.394 C 249.955 416.536, 248.105 416.638, 244.314 418.950" stroke="none" fill="white" fill-rule="evenodd"/>
</svg>